# xmcd CD database file
#
# Track frame offsets:
#	150
#	16522
#	31065
#	48040
#	64850
#	79402
#	97750
#	113105
#	130315
#	146015
#	163622
#
# Disc length: 2447 seconds
#
# Revision: 0
# Processed by: cddbd v1.5PL3 Copyright (c) Steve Scherf et al.
# Submitted via: CDex 1.50beta8
#
DISCID=80098d0b
DTITLE=渡辺真知子 - 遠く離れて
DYEAR=1979
DGENRE=ポップス
TTITLE0=自然の中に
TTITLE1=うみなり
TTITLE2=さよならに愛をこめて
TTITLE3=幸せラプソディー
TTITLE4=たとえば…たとえば
TTITLE5=南の国の恋人たち
TTITLE6=別れてそして
TTITLE7=港のフェスタ
TTITLE8=空港
TTITLE9=異国にて
TTITLE10=ワインとあなたと
EXTD=YEAR: 1979
EXTT0=
EXTT1=
EXTT2=
EXTT3=
EXTT4=
EXTT5=
EXTT6=
EXTT7=
EXTT8=
EXTT9=
EXTT10=
PLAYORDER=
